<svg xmlns="http://www.w3.org/2000/svg" width="32" height="32" enable-background="new 0 0 32 32" viewBox="0 0 32 32"><path d="M27.824,9.859c0-0.003,0-0.005,0-0.008c0-0.002-0.002-0.004-0.002-0.007l-0.835-5.008
			c-0.091-0.544-0.602-0.912-1.151-0.822L19.917,5H15V2c0-0.552-0.448-1-1-1H8H2C1.448,1,1,1.448,1,2v28c0,0.552,0.448,1,1,1h6h6h6
			c0.552,0,1-0.448,1-1V18.083l2.014,12.082C23.095,30.653,23.519,31,23.999,31c0.054,0,0.11-0.004,0.166-0.014l6-1
			c0.544-0.091,0.913-0.606,0.822-1.151L27.824,9.859z M22.001,11.927l4.018-0.731l0.186,1.117l-4.017,0.732L22.001,11.927z
			 M25.178,6.151l0.512,3.072l-4.017,0.731l-0.522-3.132L25.178,6.151z M3,7h4v18H3V7z M9,7h4v18H9V7z M13,5H9V3h4V5z M7,3v2H3V3H7z
			 M3,27h4v2H3V27z M9,27h4v2H9V27z M19,29h-4V7h4V29z M24.822,28.849l-2.305-13.832l4.017-0.732l2.315,13.893L24.822,28.849z"/><path d="M17 17c.552 0 1-.448 1-1v-6c0-.552-.448-1-1-1s-1 .448-1 1v6C16 16.552 16.448 17 17 17zM17 27c.552 0 1-.448 1-1v-6c0-.552-.448-1-1-1s-1 .448-1 1v6C16 26.552 16.448 27 17 27z"/></svg>