<?xml version="1.0" standalone="no"?>
<!DOCTYPE svg PUBLIC "-//W3C//DTD SVG 20010904//EN"
 "http://www.w3.org/TR/2001/REC-SVG-20010904/DTD/svg10.dtd">
<svg version="1.0" xmlns="http://www.w3.org/2000/svg"
 width="50.000000pt" height="50.000000pt" viewBox="0 0 50.000000 50.000000"
 preserveAspectRatio="xMidYMid meet">

<g transform="translate(0.000000,50.000000) scale(0.100000,-0.100000)"
fill="#000000" stroke="none">
<path d="M180 450 c0 -5 -30 -10 -67 -12 l-68 -3 0 -195 0 -195 205 0 205 0 0
195 0 195 -32 3 c-18 2 -33 7 -33 13 0 14 -127 11 -134 -3 -5 -10 -7 -10 -12
0 -7 14 -64 17 -64 2z m40 -35 c0 -14 -4 -25 -10 -25 -5 0 -10 11 -10 25 0 14
5 25 10 25 6 0 10 -11 10 -25z m150 0 c0 -23 -4 -25 -45 -25 -41 0 -45 2 -45
25 0 23 4 25 45 25 41 0 45 -2 45 -25z m-190 -20 c0 -21 5 -25 30 -25 25 0 30
4 30 25 0 14 5 25 10 25 6 0 10 -11 10 -25 0 -24 2 -25 65 -25 63 0 65 1 65
25 0 20 5 25 25 25 l25 0 0 -180 0 -180 -190 0 -190 0 0 180 0 180 60 0 c57 0
60 -1 60 -25z"/>
<path d="M80 390 c0 -5 5 -10 10 -10 6 0 10 5 10 10 0 6 -4 10 -10 10 -5 0
-10 -4 -10 -10z"/>
<path d="M400 390 c0 -5 5 -10 10 -10 6 0 10 5 10 10 0 6 -4 10 -10 10 -5 0
-10 -4 -10 -10z"/>
<path d="M110 275 l0 -65 50 0 50 0 0 65 0 65 -50 0 -50 0 0 -65z m40 0 c0
-25 -4 -45 -10 -45 -5 0 -10 20 -10 45 0 25 5 45 10 45 6 0 10 -20 10 -45z
m40 0 c0 -25 -4 -45 -10 -45 -5 0 -10 20 -10 45 0 25 5 45 10 45 6 0 10 -20
10 -45z"/>
<path d="M260 275 l0 -65 65 0 65 0 0 65 0 65 -65 0 -65 0 0 -65z m110 0 l0
-45 -45 0 -45 0 0 45 0 45 45 0 45 0 0 -45z"/>
<path d="M300 275 c0 -20 5 -25 25 -25 20 0 25 5 25 25 0 20 -5 25 -25 25 -20
0 -25 -5 -25 -25z"/>
<path d="M110 160 c0 -6 40 -10 100 -10 60 0 100 4 100 10 0 6 -40 10 -100 10
-60 0 -100 -4 -100 -10z"/>
<path d="M334 156 c-10 -26 4 -48 28 -44 17 2 23 10 23 28 0 18 -6 26 -23 28
-13 2 -25 -3 -28 -12z m36 -16 c0 -5 -4 -10 -10 -10 -5 0 -10 5 -10 10 0 6 5
10 10 10 6 0 10 -4 10 -10z"/>
<path d="M110 120 c0 -6 40 -10 100 -10 60 0 100 4 100 10 0 6 -40 10 -100 10
-60 0 -100 -4 -100 -10z"/>
<path d="M80 90 c0 -5 5 -10 10 -10 6 0 10 5 10 10 0 6 -4 10 -10 10 -5 0 -10
-4 -10 -10z"/>
<path d="M400 90 c0 -5 5 -10 10 -10 6 0 10 5 10 10 0 6 -4 10 -10 10 -5 0
-10 -4 -10 -10z"/>
</g>
</svg>
